<svg width="152" height="152" xmlns="http://www.w3.org/2000/svg">
 <metadata id="metadata8">image/svg+xml</metadata>

 <g>
  <title>background</title>
  <rect fill="none" id="canvas_background" height="154" width="154" y="-1" x="-1"/>
 </g>
 <g>
  <title>Layer 1</title>
  <rect stroke="null" id="svg_1" height="154.696134" width="152.928182" y="-1.417119" x="-0.022094" stroke-width="0" fill="#2384b3"/>
  <path fill="#ffffff" stroke-width="91.341751" stroke-miterlimit="4" stroke-dashoffset="0" id="path3340" d="m75.348429,112.012131c-1.00452,-0.90581 -4.54262,-6.42294 -7.86244,-12.26031c-3.31985,-5.83736 -6.70859,-11.47183 -7.53056,-12.52106c-0.93695,-1.19598 -6.23667,-4.03984 -14.20596,-7.623c-14.3363,-6.4459 -16.26277,-7.82902 -15.87486,-11.39743c0.35442,-3.26048 1.80764,-3.93506 21.98874,-10.20711c9.23067,-2.86879 24.11938,-7.4948 33.08603,-10.28004c8.96664,-2.78524 17.29735,-5.06407 18.51269,-5.06407c2.53753,0 4.92165,2.00394 4.92165,4.13682c0,0.80284 -2.99088,9.17612 -6.64639,18.60729c-3.65552,9.43118 -7.85131,20.27672 -9.32399,24.1012c-4.97807,12.92778 -8.78482,21.58667 -10.0561,22.87368c-1.74325,1.76483 -4.82418,1.60395 -7.00881,-0.36597z"/>
 </g>
</svg>