<svg width="512" height="512" xmlns="http://www.w3.org/2000/svg">
 <metadata id="metadata8">image/svg+xml</metadata>

 <g>
  <title>background</title>
  <rect fill="none" id="canvas_background" height="36.096232" width="36.096232" y="-1" x="-1"/>
 </g>
 <g>
  <title>Layer 1</title>
  <rect stroke="null" id="svg_1" height="511.54388" width="511.543872" y="0.169017" x="0.228053" stroke-width="0" fill="#2384b3"/>
  <path stroke="null" fill="#ffffff" stroke-width="0" stroke-miterlimit="4" stroke-dashoffset="0" id="path3340" d="m259.318778,374.034283c-2.947511,-2.854179 -13.32919,-20.238567 -23.070411,-38.632001c-9.741257,-18.393434 -19.684701,-36.147552 -22.09656,-39.453639c-2.749255,-3.768534 -18.299983,-12.72949 -41.683891,-24.019947c-42.066345,-20.310938 -47.71909,-24.669104 -46.58089,-35.9131c1.039983,-10.273729 5.304103,-12.399328 64.520567,-32.162454c27.085129,-9.0395 70.772381,-23.615985 97.082797,-32.392231c26.310404,-8.776223 50.754835,-15.956783 54.320942,-15.956783c7.445747,0 14.44137,6.31437 14.44137,13.035044c0,2.529744 -8.775996,28.913787 -19.502183,58.631258c-10.726223,29.71747 -23.037755,63.891583 -27.358953,75.942463c-14.606923,40.73521 -25.776896,68.019207 -29.507162,72.074573c-5.115128,5.560953 -14.155382,5.054024 -20.565625,-1.153183z"/>
 </g>
</svg>