<svg width="152" height="152" xmlns="http://www.w3.org/2000/svg">

 <g>
  <title>background</title>
  <rect fill="none" id="canvas_background" height="402" width="582" y="-1" x="-1"/>
 </g>
 <g>
  <title>Layer 1</title>
  <path stroke-width="0" fill="#408abf" id="XMLID_2_" d="m140,152l-128,0c-6.6,0 -12,-5.4 -12,-12l0,-128c0,-6.6 5.4,-12 12,-12l128,0c6.6,0 12,5.4 12,12l0,128c0,6.6 -5.4,12 -12,12z" class="st0"/>
  <path stroke="null" stroke-width="0" fill="#ffffff" id="XMLID_31_" d="m60.942667,93.381711c-7.041372,-0.593428 -11.867482,-3.931461 -14.478328,-10.162456c2.373496,0.222536 4.509643,0.296714 6.804023,-0.222536c-7.674305,-2.225355 -11.788365,-6.97278 -12.342181,-14.538988c2.29438,1.038499 4.430526,1.706106 6.883139,1.780284c-6.883139,-5.415031 -8.46547,-11.794383 -4.667876,-19.508948c8.544587,9.346492 19.146204,14.46481 32.200433,15.280773c-0.079117,-0.593428 -0.158233,-1.112678 -0.23735,-1.557749c-0.791165,-6.082638 2.610846,-12.016919 8.46547,-14.835702c5.933741,-2.818783 13.05423,-1.780284 17.801222,2.522069c0.474699,0.445071 0.870282,0.51925 1.503214,0.370893c2.848196,-0.667607 5.459042,-1.557749 8.069887,-2.892962c0.23735,-0.148357 0.474699,-0.222536 0.949399,-0.445071c-0.553816,1.780284 -1.344981,3.263854 -2.531729,4.524889c-1.186748,1.261035 -2.452613,2.299534 -3.718478,3.412211c2.769079,-0.296714 5.538158,-1.112678 8.386354,-2.151177c-1.819681,2.522069 -3.718478,4.599068 -6.091974,6.305173c-1.265865,0.890142 -1.582331,1.780284 -1.582331,3.189676c0,16.467629 -10.75985,32.193474 -26.583159,38.201933c-13.845395,5.266674 -27.453441,4.376532 -40.586787,-2.596248c-0.23735,-0.148357 -0.474699,-0.296714 -0.712049,-0.445071c0,0 -0.079117,-0.074179 -0.079117,-0.148357c5.775508,0.51925 11.392782,-0.296714 16.614474,-2.596248c2.05703,-0.964321 4.034944,-2.076998 5.933741,-3.48639z" class="st4"/>
  <path fill="#202020" opacity="0.2" id="XMLID_22_" d="m74.9,60.6c0,0 0.1,0 0.1,0c-0.1,-0.8 -0.2,-1.5 -0.3,-2.1c-0.1,-0.7 -0.1,-1.4 -0.1,-2.2c0,1 0,2.1 0.1,3.2c0.1,0.4 0.1,0.8 0.2,1.1z" class="st6"/>
 </g>
</svg>